<svg width="30" height="30" viewBox="0 0 30 30" fill="none" xmlns="http://www.w3.org/2000/svg">
<path d="M14.9981 0C6.71625 0 0 6.88584 0 15.3802C0 22.1741 4.2975 27.9378 10.26 29.9733C11.01 30.115 11.2838 29.6401 11.2838 29.2323C11.2838 28.8665 11.2706 27.8995 11.2631 26.6166C7.09125 27.5453 6.21 24.5543 6.21 24.5543C5.52938 22.7773 4.545 22.3043 4.545 22.3043C3.18188 21.3507 4.64625 21.3699 4.64625 21.3699C6.15187 21.479 6.94313 22.9554 6.94313 22.9554C8.28188 25.3049 10.455 24.627 11.31 24.2326C11.445 23.2388 11.8331 22.5609 12.2625 22.176C8.9325 21.7873 5.43 20.468 5.43 14.5759C5.43 12.8966 6.015 11.5236 6.975 10.4475C6.81938 10.0588 6.30563 8.49433 7.12125 6.3784C7.12125 6.3784 8.38125 5.96479 11.2463 7.95434C12.4425 7.61349 13.725 7.44307 15.0019 7.43732C16.275 7.44498 17.5594 7.61349 18.7575 7.95625C21.6206 5.96671 22.8787 6.38032 22.8787 6.38032C23.6962 8.49816 23.1825 10.0607 23.0287 10.4494C23.9906 11.5256 24.57 12.8985 24.57 14.5778C24.57 20.4852 21.0637 21.7854 17.7225 22.1664C18.2606 22.6413 18.7406 23.5796 18.7406 25.0138C18.7406 27.0704 18.7219 28.7287 18.7219 29.2323C18.7219 29.644 18.9919 30.1227 19.7531 29.9714C25.7062 27.934 30 22.1722 30 15.3802C30 6.88584 23.2838 0 14.9981 0Z" fill="#EB2F06"/>
</svg>
